<?xml version="1.0" standalone="no"?>
<!DOCTYPE svg PUBLIC "-//W3C//DTD SVG 20010904//EN"
 "http://www.w3.org/TR/2001/REC-SVG-20010904/DTD/svg10.dtd">
<svg version="1.0" xmlns="http://www.w3.org/2000/svg"
 width="800.000000pt" height="800.000000pt" viewBox="0 0 800.000000 800.000000"
 preserveAspectRatio="xMidYMid meet">

<g transform="translate(0.000000,800.000000) scale(0.100000,-0.100000)"
fill="#000000" stroke="none">
<path d="M3836 7369 c-93 -22 -189 -79 -271 -163 -123 -124 -178 -256 -178
-426 1 -206 96 -384 268 -498 114 -77 184 -97 335 -97 151 0 221 20 335 97
257 171 340 493 203 777 -47 96 -169 217 -268 264 -41 20 -95 41 -120 46 -55
13 -250 12 -304 0z m85 -394 c61 -26 169 -35 231 -20 25 7 27 5 33 -42 10 -74
15 -93 25 -93 6 0 10 7 10 16 0 29 25 8 28 -24 2 -23 -4 -38 -22 -57 -14 -14
-33 -39 -41 -54 -8 -16 -33 -45 -55 -63 -33 -29 -40 -41 -40 -71 0 -29 5 -39
27 -51 l27 -14 -40 -40 c-69 -70 -159 -70 -229 0 l-40 41 33 15 c28 14 32 21
32 54 0 31 -7 46 -37 77 -103 105 -123 132 -123 161 0 19 7 33 20 40 16 9 20
8 20 -5 0 -21 17 -19 24 3 3 9 8 44 12 77 3 33 8 63 11 68 7 12 32 8 94 -18z"/>
<path d="M3865 6890 c-24 -27 -13 -36 19 -15 15 10 33 14 46 10 14 -5 20 -2
20 9 0 24 -62 21 -85 -4z"/>
<path d="M4047 6904 c-11 -11 3 -24 18 -17 9 3 26 -2 40 -11 30 -20 35 -20 35
-1 0 26 -73 48 -93 29z"/>
<path d="M3900 6819 c0 -25 33 -22 38 4 2 12 -3 17 -17 17 -15 0 -21 -6 -21
-21z"/>
<path d="M4052 6823 c5 -26 38 -29 38 -4 0 15 -6 21 -21 21 -14 0 -19 -5 -17
-17z"/>
<path d="M2430 7338 c-174 -61 -312 -195 -370 -361 -117 -331 74 -695 410
-782 90 -24 260 -16 349 15 181 64 325 228 377 430 21 83 14 240 -14 320 -46
131 -120 229 -228 303 -109 74 -165 90 -324 94 -120 3 -142 1 -200 -19z m299
-299 c50 -28 73 -64 79 -121 2 -26 8 -48 13 -48 11 0 12 -51 1 -66 -4 -5 -22
-10 -41 -10 -63 1 -89 -65 -44 -110 15 -15 15 -18 -8 -35 -60 -46 -175 -46
-231 1 -22 19 -22 21 -5 31 54 32 35 109 -28 109 -18 0 -37 -5 -41 -11 -11
-18 -24 11 -24 54 0 26 4 37 15 37 11 0 14 7 9 24 -8 33 27 108 63 134 64 46
172 51 242 11z"/>
<path d="M2505 6930 c-26 -10 -50 -38 -41 -47 4 -4 20 1 35 10 16 9 39 17 50
17 12 0 21 6 21 15 0 16 -32 19 -65 5z"/>
<path d="M2660 6930 c0 -6 8 -13 18 -16 9 -3 32 -12 51 -20 49 -22 64 -2 20
25 -36 22 -89 28 -89 11z"/>
<path d="M2514 6876 c-9 -24 4 -48 23 -44 12 2 18 12 18 28 0 29 -32 41 -41
16z"/>
<path d="M2677 6883 c-13 -12 -7 -41 10 -47 9 -4 23 0 31 8 13 12 13 18 2 30
-13 17 -32 21 -43 9z"/>
<path d="M2637 6783 c-14 -15 -21 -16 -37 -5 -16 10 -20 10 -20 -2 0 -7 7 -19
15 -26 21 -18 65 2 65 30 0 24 -1 25 -23 3z"/>
<path d="M2542 6690 c10 -30 52 -60 82 -60 17 0 76 47 76 61 0 6 -8 6 -19 -1
-33 -17 -89 -12 -111 10 -29 29 -41 25 -28 -10z"/>
<path d="M5570 7262 c-14 -2 -46 -10 -72 -18 -26 -9 -56 -13 -67 -9 -13 4 -25
-2 -38 -19 -13 -16 -34 -26 -65 -31 -141 -21 -242 -157 -210 -281 6 -21 16
-58 22 -81 13 -52 30 -56 30 -9 0 53 7 63 40 58 24 -3 31 1 45 28 13 25 19 30
26 19 14 -23 10 -47 -10 -54 -22 -7 -59 -45 -43 -45 6 0 25 8 44 17 18 9 41
20 50 25 10 4 31 8 48 8 30 0 35 -2 99 -34 39 -19 55 -12 26 12 -19 15 -20 21
-10 62 l11 45 17 -32 c9 -18 24 -36 32 -41 9 -5 18 -29 22 -61 3 -28 10 -48
14 -44 4 4 17 46 28 92 16 68 18 93 10 131 -11 52 -62 120 -113 151 -29 17
-29 19 -8 19 60 0 142 -72 142 -125 0 -11 4 -26 9 -33 11 -18 69 31 88 75 27
65 -23 153 -95 169 -15 3 -31 7 -37 8 -5 1 -21 0 -35 -2z"/>
<path d="M1135 7216 c-87 -40 -136 -115 -134 -208 0 -57 7 -50 29 32 17 66 99
143 169 160 62 15 111 7 168 -26 69 -40 121 -127 124 -208 1 -27 2 -25 11 14
21 91 -47 204 -147 246 -55 23 -161 18 -220 -10z"/>
<path d="M6683 7180 c-54 -11 -76 -24 -129 -72 -32 -30 -48 -38 -64 -33 -13 4
-22 1 -26 -8 -3 -9 -27 -17 -66 -21 -117 -12 -193 -73 -204 -163 -9 -73 60
-153 132 -153 l32 0 -5 59 c-7 73 8 118 51 160 28 27 40 32 60 27 21 -5 26
-12 26 -37 0 -38 30 -159 40 -159 11 0 20 114 10 124 -6 6 -10 29 -10 51 0 30
6 47 23 63 22 21 33 22 188 22 162 0 166 0 188 -24 24 -26 31 -78 14 -112 -11
-22 -5 -124 7 -124 10 0 51 170 44 181 -9 15 39 21 63 8 56 -30 89 -129 69
-208 l-8 -34 47 5 c86 10 141 94 116 178 -24 82 -87 125 -201 137 -37 3 -61
11 -64 20 -4 9 -13 12 -26 8 -16 -5 -32 4 -66 35 -70 64 -151 88 -241 70z"/>
<path d="M6628 6854 c-16 -8 -28 -20 -28 -25 0 -7 10 -5 25 5 13 9 33 16 45
16 11 0 20 5 20 10 0 14 -31 12 -62 -6z"/>
<path d="M6790 6860 c0 -5 10 -10 23 -10 12 0 33 -7 45 -16 12 -8 22 -10 22
-5 0 12 -52 41 -75 41 -8 0 -15 -4 -15 -10z"/>
<path d="M1155 6840 c-4 -7 -3 -16 3 -22 14 -14 45 -2 40 15 -6 16 -34 21 -43
7z"/>
<path d="M1317 6844 c-14 -15 -6 -34 14 -34 14 0 19 5 17 17 -3 18 -20 27 -31
17z"/>
<path d="M5270 6770 c0 -13 7 -20 20 -20 13 0 20 7 20 20 0 13 -7 20 -20 20
-13 0 -20 -7 -20 -20z"/>
<path d="M5425 6780 c-4 -7 -3 -16 3 -22 14 -14 45 -2 40 15 -6 16 -34 21 -43
7z"/>
<path d="M6645 6780 c-8 -14 3 -30 21 -30 8 0 14 9 14 20 0 21 -24 28 -35 10z"/>
<path d="M6800 6770 c0 -15 5 -20 18 -18 9 2 17 10 17 18 0 8 -8 16 -17 18
-13 2 -18 -3 -18 -18z"/>
<path d="M990 6484 c-89 -36 -135 -74 -146 -121 -8 -31 15 -54 111 -108 93
-52 152 -65 290 -65 167 0 274 35 379 124 38 32 39 34 27 63 -7 17 -22 40 -34
51 -20 18 -188 92 -210 92 -4 0 -20 -14 -35 -31 -50 -61 -134 -76 -203 -37
-22 12 -46 32 -54 45 -19 29 -22 29 -125 -13z"/>
<path d="M5129 6433 c-112 -44 -123 -50 -143 -84 l-17 -29 62 -40 c160 -103
354 -128 528 -67 76 27 201 103 201 123 0 23 -50 55 -142 93 l-96 39 -22 -30
c-33 -44 -101 -72 -158 -63 -36 5 -56 16 -88 49 l-42 41 -83 -32z"/>
<path d="M6490 6428 c-62 -25 -105 -49 -124 -69 l-28 -32 28 -23 c52 -41 141
-84 220 -104 129 -33 266 -23 387 29 64 28 157 90 157 105 0 25 -48 56 -141
94 l-95 39 -32 -38 c-39 -46 -87 -63 -150 -54 -37 5 -55 16 -87 49 l-41 42
-94 -38z"/>
<path d="M1154 6001 c-232 -37 -422 -207 -490 -436 -26 -87 -23 -239 6 -330
27 -86 66 -156 122 -219 l42 -48 18 36 c23 45 37 53 186 111 l122 47 0 39 c0
31 -6 42 -33 63 -19 14 -42 42 -53 61 -10 19 -27 38 -36 41 -19 6 -48 53 -48
77 0 8 6 20 14 26 10 9 15 8 20 -4 10 -28 24 -15 31 28 3 23 8 54 11 70 l6 27
176 -2 177 -3 6 -42 c3 -24 3 -43 0 -43 -3 0 -19 9 -36 20 -34 23 -95 27 -95
7 0 -25 -25 -67 -40 -67 -14 0 -31 22 -46 63 -10 26 -62 21 -106 -9 -33 -23
-38 -32 -38 -64 0 -51 16 -62 92 -58 54 3 64 6 73 26 12 27 45 30 45 3 0 -24
19 -31 89 -31 59 0 81 11 81 42 0 10 5 18 10 18 6 0 10 7 10 15 0 24 29 17 36
-9 6 -25 -19 -86 -36 -86 -5 0 -16 -15 -24 -33 -7 -18 -32 -49 -55 -69 -35
-30 -41 -40 -41 -74 l1 -39 126 -49 c110 -44 129 -54 152 -87 14 -21 28 -38
32 -39 12 0 70 69 104 125 96 161 108 375 31 548 -107 240 -383 389 -642 348z
m71 -531 c3 -11 3 -29 0 -40 -5 -17 -15 -20 -71 -20 l-64 0 0 33 c0 19 3 37 7
40 3 4 32 7 64 7 49 0 59 -3 64 -20z m203 -22 l3 -38 -66 0 c-72 0 -83 9 -71
55 6 25 9 26 69 23 l62 -3 3 -37z"/>
<path d="M1155 5460 c-4 -7 -3 -16 3 -22 14 -14 45 -2 40 15 -6 16 -34 21 -43
7z"/>
<path d="M1310 5450 c0 -13 7 -20 20 -20 13 0 20 7 20 20 0 13 -7 20 -20 20
-13 0 -20 -7 -20 -20z"/>
<path d="M6600 5994 c-222 -48 -408 -237 -456 -464 -38 -181 19 -389 145 -525
l33 -37 15 29 c26 49 41 59 178 113 l135 52 0 35 c0 28 -9 44 -42 79 -122 124
-144 158 -118 189 16 19 30 19 30 0 0 -32 28 -14 34 23 9 58 8 62 -22 62 l-27
0 5 78 c7 88 29 136 83 176 44 33 114 53 129 38 15 -15 51 -15 66 0 16 16 90
-14 132 -55 49 -47 70 -101 70 -179 l0 -68 -30 0 c-32 0 -34 -6 -24 -59 7 -32
34 -44 34 -14 0 16 1 16 16 1 14 -14 14 -21 4 -53 -7 -20 -19 -39 -26 -42 -8
-3 -24 -23 -34 -44 -11 -21 -38 -53 -60 -71 -35 -28 -41 -37 -38 -66 3 -34 4
-35 128 -84 141 -56 145 -58 169 -106 l17 -34 48 52 c52 59 107 166 127 250
17 70 17 209 0 280 -52 217 -239 399 -457 445 -85 18 -179 18 -264 -1z"/>
<path d="M2491 5984 c-170 -36 -334 -164 -406 -315 -106 -224 -79 -456 76
-647 53 -65 63 -71 88 -48 9 8 72 37 141 64 l125 50 3 39 c3 34 -1 41 -22 51
-26 12 -86 86 -86 107 0 6 -11 26 -25 45 -26 36 -33 88 -14 107 8 8 8 25 -1
63 -9 39 -9 61 -1 96 13 50 4 74 -28 74 -10 0 -30 13 -45 29 -64 67 -18 171
75 171 31 0 47 -7 70 -29 16 -16 29 -37 29 -46 0 -33 22 -43 60 -27 40 17 149
18 179 3 31 -17 41 -13 56 24 23 53 52 75 101 75 60 0 94 -31 101 -92 5 -42 3
-50 -25 -78 -17 -16 -39 -30 -50 -30 -27 0 -32 -18 -19 -73 8 -35 7 -61 -2
-99 -8 -35 -8 -55 -1 -62 16 -16 12 -69 -7 -96 -10 -14 -28 -46 -39 -71 -12
-26 -41 -61 -63 -80 -37 -29 -42 -38 -39 -68 3 -34 4 -35 122 -82 66 -27 129
-58 141 -69 l22 -21 51 56 c105 114 152 237 152 394 0 175 -54 306 -174 426
-145 144 -346 203 -545 159z"/>
<path d="M5200 5800 c0 -15 -7 -20 -25 -20 -28 0 -30 -7 -10 -34 12 -16 11
-23 -13 -58 -34 -53 -42 -142 -17 -199 28 -61 41 -49 54 51 l13 90 168 0 c134
0 169 -3 173 -14 3 -8 9 -46 13 -85 6 -64 17 -92 30 -78 2 2 9 32 15 66 16 86
-1 140 -60 202 -62 63 -137 87 -225 71 -55 -11 -62 -10 -81 8 -27 25 -35 25
-35 0z"/>
<path d="M3875 5786 c-78 -36 -234 -217 -271 -312 -35 -91 -2 -204 75 -259 35
-25 53 -30 99 -30 32 0 66 4 76 8 18 7 16 11 -17 45 -20 20 -45 57 -57 82 -11
25 -28 57 -37 71 -10 17 -14 35 -9 52 9 36 23 34 31 -3 9 -41 25 -38 25 4 0
55 8 66 37 55 27 -10 45 4 59 45 5 15 8 16 15 5 16 -25 9 -49 -15 -59 -24 -9
-42 -28 -34 -36 3 -2 20 4 39 13 22 12 57 18 99 18 42 0 77 -6 99 -18 40 -20
51 -15 27 12 -13 14 -16 28 -11 55 4 20 10 36 14 36 3 0 15 -16 25 -35 10 -19
22 -32 26 -30 11 7 20 -21 20 -61 0 -42 16 -45 25 -4 8 37 22 39 31 3 5 -17 1
-36 -9 -52 -9 -14 -27 -49 -40 -76 -13 -28 -40 -65 -61 -83 l-37 -32 28 -11
c40 -15 117 -13 151 5 113 58 146 211 71 330 -19 30 -70 96 -114 147 -96 111
-145 139 -245 139 -47 0 -79 -7 -115 -24z"/>
<path d="M5247 5539 c-22 -13 -13 -29 18 -29 34 0 55 10 55 26 0 17 -46 18
-73 3z"/>
<path d="M5405 5541 c-3 -6 3 -15 14 -20 28 -16 71 -14 71 3 0 22 -73 36 -85
17z"/>
<path d="M6618 5518 c-16 -5 -28 -16 -28 -24 0 -12 9 -14 48 -8 50 7 75 20 66
35 -7 12 -51 10 -86 -3z"/>
<path d="M6772 5513 c2 -12 18 -20 52 -26 64 -11 84 6 33 28 -51 21 -89 20
-85 -2z"/>
<path d="M5270 5450 c0 -13 7 -20 20 -20 13 0 20 7 20 20 0 13 -7 20 -20 20
-13 0 -20 -7 -20 -20z"/>
<path d="M5425 5460 c-4 -7 -3 -16 3 -22 14 -14 45 -2 40 15 -6 16 -34 21 -43
7z"/>
<path d="M6645 5460 c-8 -14 3 -30 21 -30 8 0 14 9 14 20 0 21 -24 28 -35 10z"/>
<path d="M6800 5450 c0 -15 5 -20 18 -18 9 2 17 10 17 18 0 8 -8 16 -17 18
-13 2 -18 -3 -18 -18z"/>
<path d="M3897 5413 c-14 -13 -6 -33 13 -33 13 0 20 7 20 20 0 19 -20 27 -33
13z"/>
<path d="M4050 5401 c0 -15 6 -21 21 -21 25 0 22 33 -4 38 -12 2 -17 -3 -17
-17z"/>
<path d="M2523 5374 c-7 -20 17 -37 34 -23 15 13 6 39 -13 39 -8 0 -17 -7 -21
-16z"/>
<path d="M2683 5374 c-8 -20 8 -36 26 -25 15 10 8 41 -9 41 -6 0 -13 -7 -17
-16z"/>
<path d="M1190 5325 c0 -25 38 -55 68 -55 16 0 37 9 47 20 18 20 17 20 -34 20
-37 0 -53 4 -57 15 -4 8 -10 15 -15 15 -5 0 -9 -7 -9 -15z"/>
<path d="M5102 5091 c-107 -45 -115 -51 -133 -93 -12 -30 -11 -32 24 -63 50
-44 149 -91 228 -110 82 -19 208 -19 284 0 72 18 187 74 234 113 33 28 33 29
18 58 -23 45 -44 59 -144 99 l-93 37 -33 -36 c-74 -78 -183 -77 -250 4 -14 16
-29 30 -34 30 -4 0 -50 -18 -101 -39z"/>
<path d="M3730 5053 c-92 -37 -137 -72 -127 -97 10 -25 121 -92 195 -118 97
-33 287 -33 384 0 73 25 185 93 195 117 10 27 -34 60 -133 99 l-95 38 -43 -40
c-74 -69 -157 -69 -231 -1 -23 21 -46 39 -51 38 -5 0 -47 -16 -94 -36z"/>
<path d="M2540 4639 c-229 -29 -424 -192 -497 -414 -21 -65 -26 -100 -26 -185
-1 -154 31 -249 129 -379 42 -57 49 -62 59 -46 28 50 65 75 160 110 161 60
165 62 165 89 0 18 -11 31 -46 51 -26 16 -58 46 -74 72 -16 25 -39 52 -51 61
-25 17 -48 68 -42 92 3 12 12 16 28 12 22 -4 24 0 30 54 12 107 14 108 113 75
33 -11 104 -22 169 -26 94 -6 117 -5 137 8 23 15 24 15 30 -6 3 -12 6 -38 6
-57 0 -44 13 -65 34 -57 28 11 19 -39 -14 -76 -16 -19 -30 -39 -30 -44 0 -20
-61 -93 -90 -108 -24 -13 -30 -22 -30 -49 0 -28 5 -35 28 -44 232 -84 246 -92
273 -144 l22 -42 46 50 c60 65 116 172 137 260 22 95 14 255 -16 343 -94 265
-371 436 -650 400z"/>
<path d="M1120 4625 c-86 -19 -213 -83 -277 -140 -151 -133 -228 -360 -189
-559 46 -232 215 -411 447 -471 95 -25 261 -17 351 18 256 98 413 341 394 605
-18 248 -174 448 -410 527 -99 33 -223 41 -316 20z m345 -477 c4 -41 11 -58
21 -58 8 0 14 7 14 16 0 32 25 6 28 -29 3 -30 -2 -43 -25 -66 -15 -16 -37 -46
-49 -68 -12 -21 -42 -54 -68 -73 -56 -42 -62 -74 -16 -94 29 -12 29 -13 13
-37 -60 -86 -168 -98 -248 -27 -41 36 -44 55 -10 64 43 11 34 55 -22 113 -125
128 -143 150 -143 178 0 15 5 35 10 43 9 13 12 13 24 -2 23 -31 33 -20 45 56
l12 74 46 -14 c66 -20 235 -18 298 4 58 20 59 20 70 -80z"/>
<path d="M1137 4096 c-8 -20 20 -43 35 -28 14 14 3 42 -16 42 -7 0 -16 -6 -19
-14z"/>
<path d="M1314 4095 c-7 -18 3 -35 21 -35 15 0 28 27 19 41 -8 14 -34 11 -40
-6z"/>
<path d="M3883 4630 c-225 -41 -419 -221 -478 -445 -19 -75 -19 -211 0 -294
19 -81 76 -189 130 -249 l42 -46 17 36 c24 49 28 52 141 98 l99 40 31 -35 c37
-40 71 -55 125 -55 54 0 88 15 125 56 l33 35 88 -36 c114 -47 127 -56 149
-101 l18 -38 42 46 c54 60 111 168 130 249 19 83 19 219 0 294 -51 196 -213
366 -404 426 -75 23 -214 32 -288 19z m277 -352 c1 -7 7 -49 15 -93 21 -113
19 -181 -5 -229 -35 -70 -59 -81 -180 -81 -121 0 -145 11 -180 81 -24 48 -26
116 -5 229 8 44 14 86 15 93 0 9 41 12 170 12 129 0 170 -3 170 -12z"/>
<path d="M3864 4195 c-10 -24 9 -37 47 -33 26 2 34 8 34 23 0 16 -8 21 -38 23
-27 2 -39 -1 -43 -13z"/>
<path d="M4034 4195 c-10 -24 9 -37 47 -33 26 2 34 8 34 23 0 16 -8 21 -38 23
-27 2 -39 -1 -43 -13z"/>
<path d="M3875 4140 c-3 -6 -3 -19 0 -31 10 -31 49 -21 53 14 3 23 0 27 -22
27 -14 0 -28 -5 -31 -10z"/>
<path d="M4052 4123 c4 -35 43 -45 53 -14 9 28 -1 41 -31 41 -22 0 -25 -4 -22
-27z"/>
<path d="M4012 4090 c-15 -24 -29 -25 -54 -3 -17 15 -18 15 -18 -3 0 -28 19
-44 52 -44 30 0 42 15 36 50 l-3 21 -13 -21z"/>
<path d="M3904 4013 c9 -38 51 -73 86 -73 35 0 77 35 86 73 5 21 3 27 -10 27
-9 0 -16 -8 -16 -20 0 -18 -7 -20 -60 -20 -53 0 -60 2 -60 20 0 12 -7 20 -16
20 -13 0 -15 -6 -10 -27z"/>
<path d="M6581 4604 c-211 -57 -381 -236 -426 -449 -43 -203 15 -395 164 -545
120 -121 251 -175 426 -173 255 3 469 162 556 413 18 52 22 88 23 175 0 123
-10 167 -61 274 -66 139 -222 265 -379 306 -73 19 -231 19 -303 -1z m247 -246
l3 -28 -94 0 c-98 0 -115 7 -100 45 4 13 22 15 97 13 l91 -3 3 -27z m86 -288
c9 0 17 -16 22 -42 l7 -43 14 43 c12 35 18 41 29 31 20 -16 17 -49 -8 -89 -12
-19 -33 -57 -46 -83 -14 -27 -40 -58 -58 -70 -29 -19 -34 -28 -34 -63 0 -34 4
-41 27 -50 l26 -9 -28 -33 c-37 -44 -75 -62 -130 -62 -55 0 -93 18 -130 62
l-28 33 26 9 c22 8 27 16 27 44 0 26 -9 43 -42 76 -58 57 -123 183 -114 219 9
38 21 33 36 -15 l13 -43 9 42 c9 40 10 41 41 36 28 -4 34 -1 52 29 l19 33 6
-30 5 -30 93 -3 c69 -2 93 1 96 10 3 7 7 27 11 43 l7 30 19 -37 c11 -21 26
-38 33 -38z"/>
<path d="M6615 4029 c-12 -18 1 -20 36 -5 l34 15 -32 1 c-17 0 -35 -5 -38 -11z"/>
<path d="M6790 4033 c0 -5 8 -9 18 -9 9 -1 22 -3 29 -5 6 -2 13 1 15 6 1 6
-12 11 -29 13 -18 2 -33 -1 -33 -5z"/>
<path d="M6640 3970 c0 -15 5 -20 18 -18 9 2 17 10 17 18 0 8 -8 16 -17 18
-13 2 -18 -3 -18 -18z"/>
<path d="M6792 3973 c5 -26 38 -29 38 -4 0 15 -6 21 -21 21 -14 0 -19 -5 -17
-17z"/>
<path d="M5255 4436 c-90 -29 -135 -66 -135 -114 0 -13 -12 -38 -26 -55 -19
-23 -25 -39 -21 -61 3 -24 -2 -36 -24 -57 -30 -28 -36 -57 -19 -90 8 -15 7
-19 -4 -19 -20 0 -56 -48 -56 -76 0 -13 7 -29 16 -36 16 -13 42 -39 71 -70 21
-22 71 -23 101 -2 21 15 25 15 41 0 10 -9 30 -16 44 -16 22 0 27 -5 27 -25 0
-18 -7 -28 -26 -35 l-25 -10 20 -29 c59 -83 202 -79 259 7 13 20 12 22 -12 33
-17 8 -26 20 -26 36 0 19 5 23 28 23 15 0 37 7 48 15 19 12 24 12 40 0 30 -23
81 -18 109 10 14 13 25 28 25 32 0 5 10 13 23 18 39 18 35 97 -7 116 -20 10
-23 16 -19 53 5 38 2 45 -23 65 -24 19 -28 29 -25 61 2 30 -3 45 -21 63 -13
13 -24 37 -25 53 -3 39 -62 90 -127 109 -60 18 -176 18 -231 1z m93 -231 c26
-8 82 11 82 28 0 5 9 2 21 -9 12 -11 35 -19 58 -19 l38 0 13 -78 c29 -182 -32
-267 -194 -267 -93 0 -149 28 -181 90 -18 35 -30 146 -16 154 6 4 11 22 11 41
0 53 8 65 39 59 18 -4 35 1 51 14 21 17 28 18 40 7 8 -7 25 -16 38 -20z"/>
<path d="M5260 4115 c-17 -20 -5 -45 20 -45 11 0 23 7 26 15 6 15 -11 45 -26
45 -4 0 -13 -7 -20 -15z"/>
<path d="M5436 4114 c-20 -20 -9 -46 18 -42 25 4 34 43 12 51 -9 4 -22 -1 -30
-9z"/>
<path d="M5386 4035 c-13 -10 -24 -11 -37 -4 -23 12 -25 -3 -4 -21 17 -14 51
-5 59 17 9 22 4 24 -18 8z"/>
<path d="M2488 4168 c-26 -9 -40 -38 -19 -38 34 0 111 26 111 37 0 15 -51 16
-92 1z"/>
<path d="M2640 4166 c0 -15 94 -41 111 -30 17 10 9 22 -22 33 -45 16 -89 14
-89 -3z"/>
<path d="M2486 4101 c-11 -18 6 -42 28 -39 29 4 29 42 -1 46 -11 2 -24 -1 -27
-7z"/>
<path d="M2662 4088 c2 -15 10 -23 23 -23 13 0 21 8 23 23 3 18 -1 22 -23 22
-22 0 -26 -4 -23 -22z"/>
<path d="M2528 3964 c-21 -21 37 -84 77 -84 22 0 75 34 75 48 0 4 -27 5 -61 4
-54 -4 -61 -2 -66 17 -5 21 -14 26 -25 15z"/>
<path d="M6575 3251 c-106 -31 -185 -78 -265 -160 -87 -87 -132 -165 -160
-277 -51 -200 1 -405 143 -560 l60 -65 21 26 c14 17 63 42 146 75 l125 49 3
39 c3 34 -1 42 -33 66 -19 15 -49 54 -65 86 -41 80 -50 83 -50 14 0 -43 6 -68
25 -100 28 -48 23 -54 -46 -54 -115 0 -176 119 -116 225 19 33 95 96 130 108
4 1 3 15 -2 30 -14 36 -14 91 0 142 17 61 102 140 175 161 186 54 366 -76 352
-253 -3 -32 -8 -65 -11 -73 -4 -10 9 -25 40 -45 56 -36 81 -69 93 -118 12 -55
-4 -107 -44 -144 -30 -28 -43 -33 -85 -33 -77 0 -84 5 -56 46 25 37 42 114 30
135 -5 7 -17 -8 -32 -40 -14 -28 -42 -66 -64 -83 -33 -26 -39 -37 -39 -69 l0
-37 130 -52 c71 -28 134 -58 141 -66 10 -13 17 -10 46 18 18 18 52 60 74 95
117 179 129 401 33 601 -71 147 -235 279 -395 317 -86 20 -228 18 -304 -4z"/>
<path d="M3846 3234 c-106 -26 -184 -71 -272 -159 -87 -86 -131 -161 -159
-270 -18 -69 -20 -202 -4 -277 16 -78 81 -205 138 -268 l49 -55 23 22 c13 12
75 42 138 67 63 25 118 51 123 58 19 31 8 65 -31 96 -21 17 -49 53 -62 79 -12
26 -31 59 -41 72 -20 27 -26 63 -7 44 8 -8 17 -9 33 -1 11 6 28 14 36 18 8 4
17 25 20 48 4 34 8 40 20 32 24 -15 56 -11 74 9 15 16 22 18 42 9 17 -8 31 -8
47 -1 20 9 26 8 36 -9 10 -17 20 -19 52 -15 32 4 39 2 39 -12 0 -44 67 -84 98
-59 21 18 14 -23 -10 -62 -12 -19 -33 -57 -46 -83 -14 -27 -40 -58 -58 -70
-29 -19 -34 -28 -34 -62 l0 -40 124 -49 c68 -26 134 -58 146 -70 l22 -21 49
55 c57 62 122 189 138 268 16 75 14 208 -4 277 -28 109 -72 184 -159 270 -89
89 -166 134 -277 160 -79 18 -205 18 -283 -1z"/>
<path d="M1166 3054 c-95 -30 -176 -138 -176 -236 0 -20 -9 -46 -20 -61 -26
-33 -25 -69 3 -118 l22 -39 -22 -39 c-28 -49 -29 -88 -3 -121 25 -32 25 -57 0
-95 -16 -24 -28 -85 -17 -85 1 0 47 18 102 39 l100 40 3 43 c2 39 -1 45 -32
65 -19 12 -44 43 -58 70 -13 26 -34 64 -46 83 -12 19 -22 39 -22 43 0 11 43
-3 52 -17 5 -6 8 -7 8 -1 0 6 22 18 49 28 27 9 71 37 98 61 l49 44 33 -35 c33
-34 108 -74 162 -87 18 -4 32 1 47 15 l22 20 0 -24 c0 -13 -8 -35 -18 -48 -10
-13 -29 -46 -41 -72 -13 -26 -41 -62 -62 -79 -33 -26 -39 -37 -39 -69 l0 -37
103 -40 c121 -47 134 -42 92 41 l-27 53 27 52 27 51 -28 49 -28 49 28 53 27
52 -21 40 c-11 22 -24 66 -28 97 -24 172 -189 269 -366 215z"/>
<path d="M2534 3059 c-64 -18 -126 -71 -158 -134 -17 -32 -37 -64 -44 -70 -8
-6 -18 -33 -23 -60 -10 -53 -32 -85 -59 -85 -10 0 -29 -9 -44 -21 -19 -15 -26
-30 -26 -57 -1 -47 -14 -64 -72 -90 -33 -14 -49 -28 -54 -46 -22 -89 146 -299
298 -371 243 -115 505 -72 688 114 148 150 181 276 80 306 -39 12 -60 35 -60
69 0 48 -21 78 -65 93 -48 16 -65 36 -65 79 0 20 -10 44 -24 61 -14 16 -28 42
-32 58 -12 49 -103 131 -164 149 -58 17 -127 19 -176 5z m71 -313 c26 0 43 6
55 21 16 20 17 20 28 3 16 -25 58 -33 92 -17 l28 14 9 -76 9 -76 14 42 c10 34
16 41 27 32 17 -15 16 -47 -2 -79 -7 -14 -26 -49 -40 -78 -15 -29 -44 -67 -66
-84 -33 -26 -39 -37 -39 -69 0 -29 5 -39 20 -44 39 -12 14 -62 -45 -90 -72
-33 -159 -16 -204 41 -27 34 -26 40 4 48 21 5 25 12 25 43 0 30 -7 42 -41 71
-23 20 -51 56 -63 81 -12 25 -30 58 -39 73 -19 27 -20 93 -3 93 5 0 15 -16 21
-35 12 -34 13 -34 19 -10 3 14 7 41 8 60 3 33 5 34 42 36 27 0 45 7 55 21 15
20 16 20 32 -1 11 -14 28 -20 54 -20z"/>
<path d="M2500 2690 c-8 -5 -12 -11 -10 -13 8 -8 70 5 70 14 0 12 -41 11 -60
-1z"/>
<path d="M2670 2691 c0 -9 62 -22 70 -14 8 7 -24 23 -47 23 -13 0 -23 -4 -23
-9z"/>
<path d="M2522 2623 c2 -10 10 -18 18 -18 8 0 16 8 18 18 2 12 -3 17 -18 17
-15 0 -20 -5 -18 -17z"/>
<path d="M2675 2630 c-4 -7 -3 -16 3 -22 14 -14 45 -2 40 15 -6 16 -34 21 -43
7z"/>
<path d="M2540 2522 c0 -50 81 -79 128 -46 34 24 27 29 -32 26 -47 -3 -57 -1
-68 17 -16 26 -28 27 -28 3z"/>
<path d="M5262 2683 c2 -10 10 -18 18 -18 8 0 16 8 18 18 2 12 -3 17 -18 17
-15 0 -20 -5 -18 -17z"/>
<path d="M5425 2690 c-8 -13 3 -30 20 -30 14 0 27 24 18 34 -10 9 -31 7 -38
-4z"/>
<path d="M3877 2663 c-14 -14 -6 -19 23 -15 17 2 30 8 30 13 0 10 -43 12 -53
2z"/>
<path d="M4045 2662 c6 -5 23 -12 38 -16 21 -5 28 -3 25 6 -3 7 -20 14 -39 16
-21 2 -30 0 -24 -6z"/>
<path d="M1171 2641 c-17 -11 -7 -41 13 -41 22 0 30 20 15 36 -9 8 -19 10 -28
5z"/>
<path d="M6661 2640 c-17 -10 -7 -40 13 -40 7 0 16 6 19 14 8 19 -15 37 -32
26z"/>
<path d="M6816 2643 c-3 -4 -6 -15 -6 -25 0 -24 33 -21 38 3 3 17 -21 33 -32
22z"/>
<path d="M1320 2620 c0 -13 7 -20 20 -20 13 0 20 7 20 20 0 13 -7 20 -20 20
-13 0 -20 -7 -20 -20z"/>
<path d="M3897 2613 c-14 -13 -6 -33 13 -33 13 0 20 7 20 20 0 19 -20 27 -33
13z"/>
<path d="M4045 2610 c-4 -7 -3 -16 3 -22 14 -14 45 -2 40 15 -6 16 -34 21 -43
7z"/>
<path d="M6680 2525 c0 -7 9 -24 21 -39 27 -34 71 -35 104 -1 38 37 33 54 -12
46 -21 -4 -55 -4 -75 -1 -27 5 -38 3 -38 -5z"/>
<path d="M5120 2355 c-119 -49 -125 -52 -149 -95 l-21 -38 33 -24 c149 -113
322 -157 490 -124 91 18 205 69 261 118 38 34 39 34 23 64 -22 42 -31 48 -142
94 l-98 41 -25 -30 c-33 -43 -76 -63 -134 -63 -52 0 -88 17 -128 63 l-25 28
-85 -34z"/>
<path d="M3847 1884 c-141 -34 -284 -137 -366 -264 -83 -128 -116 -314 -81
-460 52 -223 221 -393 447 -451 274 -70 576 75 691 332 41 90 55 160 54 264
-2 273 -198 517 -463 580 -79 18 -205 18 -282 -1z m298 -215 c63 -30 130 -96
158 -157 21 -44 22 -64 25 -341 3 -280 2 -293 -15 -287 -10 4 -48 18 -85 33
l-67 26 -28 -33 c-67 -81 -199 -77 -260 6 l-20 27 -69 -27 c-38 -16 -75 -30
-81 -33 -20 -8 -18 516 2 583 30 102 105 182 205 218 63 23 170 16 235 -15z"/>
<path d="M4031 1604 c-47 -50 -45 -67 9 -78 41 -8 85 34 75 73 -7 28 -23 51
-35 51 -4 0 -26 -21 -49 -46z"/>
<path d="M4141 1493 c-19 -22 -22 -31 -14 -57 13 -47 42 -45 87 5 32 35 36 43
24 55 -7 7 -27 16 -43 18 -23 4 -35 -1 -54 -21z"/>
<path d="M3839 1317 c-71 -55 -38 -157 51 -157 31 0 47 6 65 26 14 15 25 31
25 35 0 5 11 9 25 9 14 0 25 -6 25 -13 0 -26 45 -57 84 -57 50 0 86 36 86 85
0 76 -97 116 -148 62 -12 -13 -22 -29 -22 -35 0 -22 -49 -13 -61 11 -7 12 -19
27 -28 34 -21 16 -81 16 -102 0z m91 -24 l24 -17 -24 -6 c-31 -7 -33 -34 -2
-38 29 -4 24 -22 -11 -42 -24 -13 -30 -13 -54 0 -38 21 -45 81 -11 104 29 20
48 20 78 -1z m225 -8 c14 -13 25 -30 25 -38 0 -26 -41 -67 -66 -67 -31 0 -64
33 -64 65 0 30 32 65 60 65 12 0 32 -11 45 -25z"/>
<path d="M4065 1260 c-4 -7 -3 -16 3 -22 14 -14 45 -2 40 15 -6 16 -34 21 -43
7z"/>
<path d="M5245 1880 c-215 -46 -396 -211 -461 -419 -57 -182 -3 -423 125 -562
l47 -52 147 59 147 59 0 48 c0 43 -4 51 -45 90 -27 26 -47 56 -51 75 -4 17
-17 38 -31 47 -36 24 -56 77 -42 112 11 30 11 30 46 -24 11 -16 12 -16 12 8 1
25 17 49 34 49 5 0 1 -7 -7 -16 -21 -21 -20 -67 2 -93 15 -19 25 -22 87 -19
62 3 71 6 80 26 5 12 17 22 25 22 8 0 20 -10 25 -22 9 -20 18 -23 81 -26 83
-3 104 9 104 63 0 51 -21 65 -99 65 -69 0 -91 -10 -91 -42 0 -28 -27 -21 -42
10 -12 24 -20 28 -78 33 -36 3 -58 6 -49 7 59 7 127 38 162 74 32 34 37 36 37
17 0 -11 16 -37 35 -56 33 -33 39 -35 85 -31 l50 5 0 -38 c0 -46 12 -50 29
-12 12 27 13 27 28 8 19 -26 10 -72 -21 -105 -13 -14 -26 -36 -30 -50 -10 -44
-45 -90 -81 -107 -35 -17 -36 -19 -33 -67 l3 -50 130 -53 c72 -28 138 -56 147
-62 13 -8 23 -3 49 27 52 59 106 148 129 215 31 87 38 258 15 347 -50 192
-196 350 -385 417 -82 28 -238 40 -315 23z m70 -575 l0 -40 -67 -3 c-60 -3
-67 -1 -73 18 -4 12 -4 33 -1 46 6 24 10 25 74 22 l67 -3 0 -40z m230 0 l0
-40 -70 0 c-69 0 -70 0 -73 28 -6 53 1 58 75 55 l68 -3 0 -40z"/>
<path d="M5254 1325 c-4 -9 -2 -21 4 -27 15 -15 44 -1 40 19 -4 23 -36 29 -44
8z"/>
<path d="M5424 1325 c-4 -9 -2 -21 4 -27 15 -15 44 -1 40 19 -4 23 -36 29 -44
8z"/>
<path d="M6670 1701 c-92 -30 -169 -96 -209 -181 -26 -55 -26 -56 -29 -343
l-3 -287 53 21 c29 12 79 31 111 42 l57 20 0 59 c0 53 -3 62 -29 83 -15 14
-34 37 -40 52 -7 16 -26 37 -44 48 -37 24 -57 76 -37 100 11 14 15 12 31 -15
11 -17 19 -41 19 -55 0 -33 27 -45 97 -45 62 0 76 5 86 33 7 18 37 24 37 8 0
-26 34 -41 91 -41 76 0 99 12 99 50 0 32 19 80 31 80 13 0 21 -38 13 -62 -7
-25 -45 -74 -111 -145 -39 -41 -43 -50 -43 -97 l0 -51 98 -37 c53 -20 105 -40
115 -44 17 -6 18 7 15 282 -3 288 -3 289 -29 345 -54 114 -153 180 -279 185
-41 2 -86 0 -100 -5z m209 -234 c34 -17 59 -56 67 -102 l6 -40 -81 3 c-78 3
-81 3 -92 -22 -7 -14 -18 -26 -24 -26 -6 0 -17 12 -24 26 -11 25 -14 25 -91
22 l-80 -3 0 41 c0 45 27 89 64 104 33 14 228 11 255 -3z m-163 -184 c12 -45
-6 -58 -77 -58 l-64 0 -3 43 -3 42 70 0 c68 0 71 -1 77 -27z m219 -18 l0 -40
-58 -3 c-35 -2 -64 2 -73 9 -15 12 -19 60 -7 73 4 4 37 6 73 4 l65 -3 0 -40z"/>
<path d="M6653 1264 c-3 -8 -1 -20 6 -27 14 -14 47 15 37 32 -10 16 -36 13
-43 -5z"/>
<path d="M6807 1266 c-8 -20 20 -43 35 -28 14 14 3 42 -16 42 -7 0 -16 -6 -19
-14z"/>
<path d="M1155 1688 c-98 -35 -165 -126 -165 -222 0 -64 40 -198 51 -170 4 10
8 30 8 43 1 16 5 21 16 17 8 -3 22 -9 30 -12 10 -4 22 7 37 32 12 20 23 33 24
28 1 -5 5 -22 8 -37 l7 -28 91 3 91 3 11 40 11 39 23 -37 c12 -21 26 -36 31
-32 6 3 14 -14 19 -37 l9 -43 21 69 c25 78 28 162 8 211 -21 48 -89 111 -143
129 -53 18 -143 20 -188 4z"/>
<path d="M2806 1641 c58 -43 96 -118 96 -190 0 -31 -7 -73 -15 -94 -9 -21 -12
-39 -6 -42 18 -12 9 -64 -16 -93 -14 -17 -25 -36 -25 -43 0 -26 -40 -80 -75
-100 -25 -15 -35 -28 -35 -45 0 -24 0 -24 115 -24 l115 0 0 210 c0 167 -3 219
-16 257 -23 67 -67 127 -119 163 -56 39 -72 39 -19 1z"/>
<path d="M2545 1641 c-52 -23 -103 -74 -126 -126 -22 -47 -25 -154 -7 -206 12
-33 12 -33 18 -9 5 22 17 28 89 47 63 17 92 30 117 54 19 18 35 31 37 28 1 -2
9 -16 16 -31 18 -35 73 -61 111 -53 27 6 30 4 30 -17 0 -13 4 -29 9 -37 13
-20 31 49 31 119 0 98 -65 198 -152 234 -50 21 -124 20 -173 -3z"/>
<path d="M2396 1588 c-67 -78 -76 -120 -76 -363 l0 -215 110 0 c109 0 110 0
110 24 0 15 -12 33 -36 51 -20 15 -44 46 -54 69 -10 22 -30 52 -44 65 -27 24
-37 83 -16 96 6 4 5 16 -4 33 -37 72 -25 177 29 247 36 48 24 44 -19 -7z"/>
<path d="M1311 1301 c-17 -11 -7 -41 13 -41 22 0 30 20 15 36 -9 8 -19 10 -28
5z"/>
<path d="M1150 1279 c0 -14 5 -19 17 -17 26 5 29 38 4 38 -15 0 -21 -6 -21
-21z"/>
<path d="M2534 1259 c-9 -15 12 -33 30 -26 9 4 16 13 16 22 0 17 -35 21 -46 4z"/>
<path d="M2690 1250 c0 -16 5 -21 23 -18 12 2 22 10 22 18 0 8 -10 16 -22 18
-18 3 -23 -2 -23 -18z"/>
<path d="M1180 1172 c0 -10 10 -28 23 -40 31 -29 80 -29 110 1 l22 22 -63 3
c-44 2 -65 7 -69 17 -7 21 -23 19 -23 -3z"/>
<path d="M5260 1170 c0 -25 42 -70 67 -71 38 -3 59 4 81 24 12 11 22 23 22 26
0 3 -29 5 -64 3 -57 -3 -66 -1 -78 17 -16 27 -28 27 -28 1z"/>
<path d="M991 941 c-84 -34 -141 -74 -141 -99 0 -4 28 -26 63 -50 160 -108
377 -131 558 -57 70 28 169 92 169 109 0 25 -58 64 -149 100 -88 35 -95 36
-104 20 -19 -33 -60 -64 -99 -74 -61 -17 -107 -3 -157 46 -24 24 -44 44 -45
43 0 0 -43 -17 -95 -38z"/>
</g>
</svg>
