<?xml version="1.0" standalone="no"?>
<!DOCTYPE svg PUBLIC "-//W3C//DTD SVG 20010904//EN"
 "http://www.w3.org/TR/2001/REC-SVG-20010904/DTD/svg10.dtd">
<svg version="1.0" xmlns="http://www.w3.org/2000/svg"
 width="225.000000pt" height="225.000000pt" viewBox="0 0 225.000000 225.000000"
 preserveAspectRatio="xMidYMid meet">

<g transform="translate(0.000000,225.000000) scale(0.100000,-0.100000)"
fill="#000000" stroke="none">
<path d="M550 1666 c0 -2 8 -10 18 -17 15 -13 16 -12 3 4 -13 16 -21 21 -21
13z"/>
<path d="M978 1633 c138 -2 366 -2 505 0 138 1 25 2 -253 2 -278 0 -391 -1
-252 -2z"/>
<path d="M1812 1625 c56 -31 58 -44 58 -400 0 -385 -1 -389 -90 -418 -8 -3 -1
-6 15 -6 44 -1 78 20 97 59 16 31 18 70 18 358 0 389 -2 396 -95 416 l-30 6
27 -15z"/>
<path d="M706 1589 c-14 -11 -26 -30 -26 -42 l0 -22 580 -1 580 -1 0 22 c0 12
-10 31 -23 43 l-23 22 -531 0 c-521 0 -531 0 -557 -21z m54 -24 c0 -8 -4 -15
-9 -15 -13 0 -22 16 -14 24 11 11 23 6 23 -9z m74 -6 c-3 -5 -10 -7 -15 -3 -5
3 -7 10 -3 15 3 5 10 7 15 3 5 -3 7 -10 3 -15z m76 6 c0 -8 -4 -15 -10 -15 -5
0 -10 7 -10 15 0 8 5 15 10 15 6 0 10 -7 10 -15z"/>
<path d="M554 1488 l-19 -23 23 19 c21 18 27 26 19 26 -2 0 -12 -10 -23 -22z"/>
<path d="M1204 1436 c-29 -29 -34 -41 -34 -79 0 -36 6 -52 26 -74 15 -15 21
-21 15 -12 -10 14 -7 21 15 38 30 24 52 26 88 10 31 -14 40 -37 24 -58 -8 -9
-3 -8 11 4 87 73 41 205 -72 205 -31 0 -46 -7 -73 -34z m104 -28 c30 -30 0
-75 -43 -64 -19 5 -25 13 -25 35 0 38 41 56 68 29z"/>
<path d="M470 1430 c33 -11 60 -12 60 -2 0 4 -19 8 -43 9 -34 1 -37 0 -17 -7z"/>
<path d="M447 1378 c15 -14 27 -18 43 -13 27 9 21 15 -26 25 l-37 9 20 -21z"/>
<path d="M631 1267 c-23 -52 -17 -61 15 -22 13 17 24 25 24 18 0 -6 -4 -15
-10 -18 -5 -3 -10 -26 -10 -51 0 -41 -3 -46 -30 -56 -17 -5 -35 -18 -40 -28
-6 -10 -10 -73 -10 -139 l0 -119 33 8 c17 5 67 14 110 21 43 6 76 14 73 16 -2
3 -46 5 -98 6 -59 0 -72 2 -36 4 55 4 57 5 63 36 20 99 24 107 54 107 28 0 29
1 21 36 -10 44 -5 39 -65 61 -37 14 -51 24 -53 40 -3 22 -1 23 71 38 21 4 22
-13 2 -43 -15 -20 -15 -21 0 -16 26 10 37 52 23 82 -10 20 -22 28 -46 30 -17
2 -32 7 -32 11 0 5 -9 11 -21 14 -17 4 -24 -2 -38 -36z"/>
<path d="M934 1206 c-3 -8 -4 -25 -2 -38 3 -22 7 -23 101 -26 l97 -3 0 41 0
40 -95 0 c-74 0 -97 -3 -101 -14z"/>
<path d="M937 1103 c-13 -13 -7 -61 9 -67 9 -3 55 -6 103 -6 l87 0 -4 40 -4
40 -92 0 c-51 0 -96 -3 -99 -7z"/>
<path d="M1190 1078 c0 -4 9 -8 20 -8 11 0 20 4 20 8 0 4 -9 8 -20 8 -11 0
-20 -4 -20 -8z"/>
<path d="M1240 1078 c0 -5 25 -8 55 -8 30 0 55 3 55 8 0 4 -25 7 -55 7 -30 0
-55 -3 -55 -7z"/>
<path d="M1360 1078 c0 -4 9 -8 20 -8 11 0 20 4 20 8 0 4 -9 8 -20 8 -11 0
-20 -4 -20 -8z"/>
<path d="M1410 1078 c0 -5 20 -8 45 -8 25 0 45 4 45 8 0 5 -20 9 -45 8 -25 -1
-45 -4 -45 -8z"/>
<path d="M1510 1079 c0 -5 10 -9 22 -9 12 0 18 3 14 7 -10 11 -36 12 -36 2z"/>
<path d="M810 980 c0 -5 5 -10 10 -10 6 0 10 5 10 10 0 6 -4 10 -10 10 -5 0
-10 -4 -10 -10z"/>
<path d="M906 912 c-2 -4 11 -6 30 -4 19 2 34 6 34 8 0 8 -59 4 -64 -4z"/>
<path d="M1183 913 c9 -2 23 -2 30 0 6 3 -1 5 -18 5 -16 0 -22 -2 -12 -5z"/>
<path d="M1342 913 c37 -2 100 -2 140 0 40 1 10 3 -67 3 -77 0 -110 -1 -73 -3z"/>
<path d="M1758 913 c6 -2 18 -2 25 0 6 3 1 5 -13 5 -14 0 -19 -2 -12 -5z"/>
<path d="M823 903 c9 -2 23 -2 30 0 6 3 -1 5 -18 5 -16 0 -22 -2 -12 -5z"/>
<path d="M871 898 c2 -2 18 -14 34 -28 l30 -25 -24 28 c-14 15 -29 27 -34 27
-6 0 -8 -1 -6 -2z"/>
<path d="M577 819 c7 -7 15 -10 18 -7 3 3 -2 9 -12 12 -14 6 -15 5 -6 -5z"/>
<path d="M950 816 c0 -2 8 -10 18 -17 15 -13 16 -12 3 4 -13 16 -21 21 -21 13z"/>
<path d="M1161 763 c11 -57 22 -71 43 -54 31 26 48 -9 20 -40 -14 -16 -13 -19
23 -43 22 -15 31 -26 21 -26 -9 0 -19 -6 -21 -12 -4 -10 -8 -10 -15 1 -13 18
-54 -3 -46 -24 4 -9 0 -15 -9 -15 -21 0 -33 -40 -16 -51 10 -7 11 -11 3 -16
-8 -5 -8 -16 -3 -31 7 -17 14 -22 28 -17 14 4 19 1 17 -12 -1 -21 33 -30 45
-11 8 11 10 11 18 -1 11 -17 55 4 47 24 -2 7 3 15 13 18 22 5 35 47 15 47 -17
0 -19 17 -1 23 19 7 -7 43 -28 39 -13 -3 -16 1 -12 12 4 9 1 16 -6 16 -8 0 -9
3 -1 8 6 4 13 15 17 25 3 9 16 17 27 17 15 0 20 -7 20 -26 0 -25 2 -26 41 -21
51 7 64 18 50 44 -17 33 8 48 35 22 l22 -21 26 38 c31 46 32 60 6 67 -30 8
-27 47 4 47 14 0 28 5 31 10 4 6 -23 10 -74 10 -69 0 -79 -2 -74 -16 7 -20
-34 -64 -62 -64 -28 0 -69 44 -62 64 5 14 -5 16 -72 16 l-78 0 8 -47z m117
-261 c4 -28 -24 -40 -45 -19 -14 13 -14 19 -3 32 18 22 44 15 48 -13z"/>
<path d="M772 778 c-73 -25 -145 -27 -170 -5 -17 16 -52 24 -52 12 0 -3 10
-21 23 -40 21 -34 24 -35 84 -35 43 0 84 8 130 25 37 14 68 27 70 29 2 1 -5 9
-14 17 -16 13 -24 13 -71 -3z"/>
<path d="M1007 773 c-17 -4 -16 -8 9 -34 15 -16 26 -30 23 -32 -2 -2 -17 -13
-33 -25 l-30 -23 -45 43 c-25 24 -40 36 -33 29 8 -10 13 -57 14 -140 1 -70 3
-109 5 -88 5 43 10 44 56 17 l35 -21 5 22 c6 22 27 18 27 -7 0 -8 10 -14 23
-14 31 0 49 14 42 32 -7 18 10 34 20 18 10 -17 24 -12 42 16 16 24 16 27 0 36
-23 12 -21 28 3 28 23 0 24 7 10 45 -7 18 -15 25 -25 21 -19 -7 -31 14 -14 25
11 7 9 13 -11 29 -30 23 -50 26 -50 5 0 -22 -21 -18 -27 5 -5 20 -12 22 -46
13z m33 -108 c-7 -8 -20 -15 -29 -15 -12 0 -10 5 9 20 28 21 39 18 20 -5z
m-100 -10 c0 -8 -4 -15 -10 -15 -5 0 -10 7 -10 15 0 8 5 15 10 15 6 0 10 -7
10 -15z m150 -18 c0 -20 -22 -37 -47 -37 -13 0 -23 3 -23 6 0 8 24 30 40 37
24 9 30 8 30 -6z m-130 -67 c0 -5 -7 -10 -15 -10 -8 0 -15 5 -15 10 0 6 7 10
15 10 8 0 15 -4 15 -10z"/>
</g>
</svg>
