<?xml version="1.0" standalone="no"?>
<!DOCTYPE svg PUBLIC "-//W3C//DTD SVG 20010904//EN"
 "http://www.w3.org/TR/2001/REC-SVG-20010904/DTD/svg10.dtd">
<svg version="1.0" xmlns="http://www.w3.org/2000/svg"
 width="320.000000pt" height="320.000000pt" viewBox="0 0 320.000000 320.000000"
 preserveAspectRatio="xMidYMid meet">

<g transform="translate(0.000000,320.000000) scale(0.100000,-0.100000)"
fill="#000000" stroke="none">
<path d="M2429 2950 c-73 -38 -88 -137 -31 -201 54 -60 164 -49 205 21 38 63
8 158 -58 186 -45 18 -72 17 -116 -6z m89 -80 c23 -17 42 -32 42 -35 0 -2 -21
-18 -46 -36 -54 -37 -64 -31 -64 42 0 69 8 73 68 29z"/>
<path d="M1714 2919 c-3 -6 0 -17 7 -25 18 -17 44 -2 36 20 -7 18 -33 21 -43
5z m36 -9 c0 -5 -4 -10 -10 -10 -5 0 -10 5 -10 10 0 6 5 10 10 10 6 0 10 -4
10 -10z"/>
<path d="M1972 2887 c-31 -18 -47 -44 -71 -115 -32 -94 -25 -122 31 -122 42 0
34 -12 -28 -40 -183 -81 -239 -313 -111 -456 39 -44 45 -55 50 -111 3 -39 17
-88 37 -131 l32 -70 57 -4 c71 -5 176 -61 283 -152 88 -73 122 -126 259 -398
81 -161 113 -216 124 -212 25 10 30 -41 6 -72 -31 -39 -26 -56 28 -116 l49
-54 51 -277 c28 -153 51 -282 51 -288 0 -5 -9 -18 -20 -29 -20 -20 -33 -20
-585 -20 l-565 0 15 24 c12 18 15 47 13 127 l-3 104 -48 3 c-38 2 -47 6 -43
18 51 132 56 324 11 429 l-17 40 -26 -53 -27 -52 -27 89 c-26 84 -97 210 -124
218 -19 6 -37 -178 -32 -318 l4 -126 -33 40 c-18 21 -33 50 -33 63 0 13 -5 24
-11 24 -6 0 -8 -9 -4 -20 6 -20 -9 -28 -20 -10 -10 16 -25 11 -25 -8 0 -38 33
-140 70 -223 45 -97 49 -119 21 -119 -17 0 -20 -8 -23 -52 l-3 -53 -327 -3
-326 -2 -30 25 c-16 13 -34 37 -40 52 -15 36 -222 1166 -222 1209 0 17 9 42
19 55 l19 24 319 3 c353 3 368 0 404 -63 10 -17 42 -165 74 -340 57 -317 62
-341 70 -333 8 8 -113 646 -129 676 -9 17 -31 40 -49 51 -33 20 -47 21 -356
21 -212 0 -329 -4 -343 -11 -11 -6 -26 -26 -34 -45 -14 -33 -9 -68 96 -637 68
-369 118 -613 128 -631 9 -16 30 -38 45 -50 27 -20 41 -21 351 -24 l324 -3 5
-36 c4 -20 16 -46 28 -59 l22 -24 -396 0 -396 0 -27 23 c-26 22 -31 49 -159
743 -73 395 -136 737 -139 760 -6 32 -3 45 13 65 l19 24 454 5 453 5 -443 3
c-480 2 -494 1 -508 -52 -7 -30 263 -1504 282 -1533 36 -56 -36 -53 1184 -51
l1123 3 20 27 20 27 -50 273 c-28 150 -50 274 -49 275 1 1 22 -11 47 -27 91
-59 127 -38 90 54 -24 59 -30 63 -63 45 -11 -6 -22 -8 -25 -5 -3 3 6 11 21 17
14 7 26 18 26 26 0 17 -5 16 -36 -3 -13 -9 -27 -14 -31 -11 -3 4 6 12 21 18
14 7 26 16 26 20 0 5 -16 38 -36 73 -19 36 -37 80 -40 98 -5 46 -87 327 -124
428 -16 46 -30 88 -30 93 0 6 23 7 55 3 68 -8 105 0 105 23 0 9 -20 36 -44 60
-44 43 -45 44 -70 27 -29 -18 -36 -10 -8 10 13 10 14 15 5 25 -10 10 -16 7
-32 -12 -11 -13 -20 -20 -21 -15 0 5 7 18 16 28 16 16 15 19 -7 37 -13 11 -27
20 -31 21 -4 0 5 26 19 58 55 123 78 328 49 426 -24 81 -62 102 -130 76 l-25
-9 19 32 c27 44 26 47 -19 47 -37 0 -40 -3 -70 -60 -31 -57 -63 -94 -48 -55
10 24 -32 93 -96 158 -40 40 -68 59 -120 77 -69 26 -85 42 -45 48 13 2 29 9
36 14 17 14 16 130 -2 173 -23 55 -93 80 -144 52z m136 -102 c7 -6 -22 -86
-35 -96 -10 -9 -19 -7 -38 5 -21 14 -24 14 -19 1 4 -8 10 -15 15 -15 5 0 9
-13 9 -30 0 -24 5 -31 27 -36 25 -7 25 -8 8 -20 -23 -17 -66 -18 -120 -3 l-39
11 26 14 c34 18 67 108 49 136 -15 23 -14 28 4 28 8 0 15 5 15 11 0 7 16 8 48
3 26 -3 48 -8 50 -9z m271 -461 c-5 -14 -15 -35 -23 -45 -28 -41 -143 -132
-204 -163 -63 -31 -64 -31 -78 -11 -8 11 -14 35 -12 55 3 34 4 34 66 47 92 19
148 46 167 82 8 17 18 31 21 31 3 0 2 -6 -2 -12 -4 -7 8 1 26 19 38 36 54 35
39 -3z m40 -171 c-14 -42 -26 -49 -50 -27 -31 28 -25 144 7 144 7 0 19 10 26
23 11 20 13 16 20 -43 5 -40 4 -77 -3 -97z m-76 -208 c45 -40 53 -44 62 -29
32 51 34 51 35 -9 0 -46 -3 -56 -14 -50 -23 14 -151 133 -142 133 4 0 31 -20
59 -45z m191 -65 c4 -4 -4 -18 -18 -31 -14 -12 -26 -29 -26 -37 0 -12 -4 -12
-20 3 -13 11 -20 31 -20 53 0 34 0 34 38 27 20 -3 41 -10 46 -15z m185 -206
c10 -9 -135 -3 -149 6 -9 5 15 7 65 3 44 -3 82 -7 84 -9z m-1270 -636 c16 -32
37 -91 47 -132 17 -73 17 -76 -4 -148 -37 -125 -39 -193 -7 -270 6 -14 2 -18
-17 -18 -21 0 -27 9 -45 67 -11 38 -31 95 -43 128 -19 51 -23 81 -24 205 0 80
3 176 8 215 l8 70 24 -30 c14 -17 37 -56 53 -87z m1287 36 c8 -20 14 -37 12
-38 -2 -1 -13 -10 -25 -20 -22 -18 -22 -18 -42 15 -12 19 -21 39 -21 46 0 9
27 24 58 32 2 1 10 -15 18 -35z m-38 -176 c39 -42 76 -70 117 -89 33 -16 52
-28 42 -29 -44 -1 -139 66 -198 141 -47 59 -25 47 39 -23z m-1087 -158 c0
-113 -36 -270 -62 -270 -18 0 2 308 28 425 l6 30 14 -45 c8 -25 14 -87 14
-140z m-65 3 c-8 -70 -16 -159 -17 -196 -1 -37 -6 -70 -10 -73 -5 -2 -16 8
-26 23 -24 36 -23 146 1 227 28 94 59 172 63 159 3 -7 -3 -70 -11 -140z m-253
18 c25 -26 56 -70 70 -97 29 -57 70 -185 62 -192 -9 -9 -21 11 -34 58 -16 55
-100 220 -112 220 -5 0 3 -19 18 -42 37 -59 93 -188 93 -216 0 -90 -123 139
-155 286 -9 44 4 41 58 -17z"/>
<path d="M1080 2825 c13 -14 26 -25 28 -25 3 0 -5 11 -18 25 -13 14 -26 25
-28 25 -3 0 5 -11 18 -25z"/>
<path d="M1540 2755 c-52 -52 -92 -97 -89 -99 3 -3 47 37 99 89 52 52 92 97
89 99 -3 3 -47 -37 -99 -89z"/>
<path d="M1121 2744 c0 -11 3 -14 6 -6 3 7 2 16 -1 19 -3 4 -6 -2 -5 -13z"/>
<path d="M2687 2719 c-32 -24 -54 -63 -57 -99 -6 -65 0 -83 40 -122 36 -33 47
-38 88 -38 61 0 111 26 134 70 35 66 14 155 -46 191 -43 26 -122 25 -159 -2z
m140 -61 c18 -18 33 -37 33 -43 0 -6 -22 -33 -50 -60 l-50 -49 -39 38 -40 39
47 53 c25 30 50 54 56 54 5 0 25 -14 43 -32z"/>
<path d="M2779 2636 c-3 -23 -12 -32 -39 -43 l-35 -13 35 6 c45 8 52 15 48 50
l-4 29 -5 -29z"/>
<path d="M251 2684 c0 -11 3 -14 6 -6 3 7 2 16 -1 19 -3 4 -6 -2 -5 -13z"/>
<path d="M635 2657 c-12 -10 -14 -16 -7 -21 7 -4 12 -13 12 -19 0 -7 -4 -6
-10 3 -17 27 -21 3 -6 -31 11 -23 14 -26 10 -9 -5 20 -4 23 6 13 10 -9 20 -6
45 13 41 31 59 30 84 -2 l21 -27 0 26 c0 54 -104 90 -155 54z"/>
<path d="M1141 2634 c0 -11 3 -14 6 -6 3 7 2 16 -1 19 -3 4 -6 -2 -5 -13z"/>
<path d="M301 2414 c0 -11 3 -14 6 -6 3 7 2 16 -1 19 -3 4 -6 -2 -5 -13z"/>
<path d="M625 2391 l-30 -7 33 -18 c45 -23 66 -28 132 -30 43 -1 64 5 95 24
l40 25 -30 6 c-50 11 -73 10 -87 -4 -15 -15 -45 -14 -61 2 -12 12 -45 12 -92
2z"/>
<path d="M321 2304 c0 -11 3 -14 6 -6 3 7 2 16 -1 19 -3 4 -6 -2 -5 -13z"/>
<path d="M341 2194 c0 -11 3 -14 6 -6 3 7 2 16 -1 19 -3 4 -6 -2 -5 -13z"/>
<path d="M692 2178 c3 -9 36 -14 112 -16 84 -2 107 0 104 10 -3 9 -36 14 -112
16 -84 2 -107 0 -104 -10z"/>
<path d="M2752 2088 c-7 -7 -12 -24 -12 -38 0 -33 17 -50 50 -50 29 0 50 16
50 39 0 11 -5 9 -16 -7 -17 -24 -43 -29 -62 -10 -19 19 -14 45 10 62 16 11 18
16 7 16 -8 0 -20 -5 -27 -12z"/>
<path d="M500 2055 c0 -13 42 -15 326 -15 256 0 325 3 322 13 -4 9 -80 13
-326 15 -282 2 -322 0 -322 -13z"/>
<path d="M516 1981 c-17 -27 28 -31 330 -29 267 3 309 5 309 18 0 13 -43 15
-317 18 -180 1 -319 -2 -322 -7z"/>
<path d="M1343 1843 c104 -2 270 -2 370 0 100 1 16 2 -188 2 -203 0 -285 -1
-182 -2z"/>
<path d="M2805 1658 l-110 -113 113 110 c104 102 117 115 109 115 -1 0 -52
-51 -112 -112z"/>
<path d="M640 1588 c-60 -32 -82 -75 -78 -155 5 -74 38 -129 106 -177 35 -25
55 -31 110 -34 57 -3 72 0 101 20 44 30 68 64 75 108 6 37 0 27 -25 -39 -12
-32 -14 -33 -53 -27 -22 4 -44 12 -48 19 -14 23 -8 37 16 37 25 0 56 23 56 41
0 5 -10 29 -21 52 -59 116 -134 157 -192 103 -26 -24 -47 -80 -47 -127 0 -32
38 -69 72 -69 18 0 27 -7 31 -22 8 -28 9 -27 -45 -34 -39 -5 -48 -3 -67 17
-114 121 -58 300 94 299 78 -1 171 -65 202 -138 8 -19 16 -32 19 -29 9 9 -33
80 -63 109 -39 37 -110 68 -158 68 -23 0 -60 -10 -85 -22z m174 -114 c3 -9 6
-31 6 -50 0 -27 -5 -37 -26 -46 -24 -11 -24 -12 -6 -19 13 -5 21 -21 26 -49 7
-45 2 -60 -18 -60 -22 0 -36 24 -43 76 -3 29 -16 61 -30 77 -12 16 -23 42 -23
58 0 28 1 29 54 29 40 0 55 -4 60 -16z"/>
<path d="M753 1413 c9 -2 23 -2 30 0 6 3 -1 5 -18 5 -16 0 -22 -2 -12 -5z"/>
<path d="M2215 1461 c-3 -5 -1 -12 5 -16 5 -3 10 1 10 9 0 18 -6 21 -15 7z"/>
<path d="M2185 1420 c4 -6 11 -8 16 -5 14 9 11 15 -7 15 -8 0 -12 -5 -9 -10z"/>
<path d="M2248 1423 c7 -3 16 -2 19 1 4 3 -2 6 -13 5 -11 0 -14 -3 -6 -6z"/>
<path d="M2215 1401 c-3 -5 -1 -12 5 -16 5 -3 10 1 10 9 0 18 -6 21 -15 7z"/>
<path d="M720 1115 c0 -12 17 -15 101 -15 76 0 100 3 97 13 -3 8 -35 13 -101
15 -82 2 -97 0 -97 -13z"/>
<path d="M1700 945 c0 -8 9 -15 20 -15 11 0 20 7 20 15 0 8 -9 15 -20 15 -11
0 -20 -7 -20 -15z"/>
<path d="M1787 954 c-9 -10 2 -24 19 -24 8 0 14 7 14 15 0 15 -21 21 -33 9z"/>
<path d="M1867 954 c-9 -10 2 -24 19 -24 8 0 14 7 14 15 0 15 -21 21 -33 9z"/>
<path d="M1950 945 c0 -8 7 -15 15 -15 8 0 15 7 15 15 0 8 -7 15 -15 15 -8 0
-15 -7 -15 -15z"/>
<path d="M1740 765 c0 -8 9 -15 20 -15 11 0 20 7 20 15 0 8 -9 15 -20 15 -11
0 -20 -7 -20 -15z"/>
<path d="M1827 774 c-9 -10 2 -24 19 -24 8 0 14 7 14 15 0 15 -21 21 -33 9z"/>
<path d="M1907 774 c-9 -10 2 -24 19 -24 8 0 14 7 14 15 0 15 -21 21 -33 9z"/>
<path d="M1990 765 c0 -10 7 -15 18 -13 21 4 19 22 -2 26 -10 2 -16 -3 -16
-13z"/>
<path d="M2375 590 c-105 -105 -185 -190 -180 -190 13 0 381 368 374 374 -3 3
-90 -80 -194 -184z"/>
<path d="M2150 485 c-57 -57 -102 -107 -99 -109 3 -3 52 42 109 99 57 57 102
107 99 109 -3 3 -52 -42 -109 -99z"/>
</g>
</svg>
